PathFileType	4	(X/Y/Z)	1H_rest_med_left.trc
DataRate	CameraRate	NumFrames	NumMarkers	Units	OrigDataRate	OrigDataStartFrame	OrigNumFrames
250.00	250.00	7	18	mm	250.00	14674	23478
Frame#	Time	c7	r_should	l_should	clavicle	r_upa	r_elb_l	r_elb_m	r_low	r_wri_l	r_wri_m	r_met	l_upa	l_elb_l	l_elb_m	l_low	l_wri_l	l_wri_m	l_met
	X1	Y1	Z1	X2	Y2	Z2	X3	Y3	Z3	X4	Y4	Z4	X5	Y5	Z5	X6	Y6	Z6	X7	Y7	Z7	X8	Y8	Z8	X9	Y9	Z9	X10	Y10	Z10	X11	Y11	Z11	X12	Y12	Z12	X13	Y13	Z13	X14	Y14	Z14	X15	Y15	Z15	X16	Y16	Z16	X17	Y17	Z17	X18	Y18	Z18
14674	58.69200	619.45380	1417.79041	265.66541	685.21997	1362.03394	418.95828	649.51959	1368.57739	101.21406	755.28235	1286.43921	248.25871	693.86969	1154.59082	489.97092	692.24103	1065.57642	510.99564	638.61707	1029.92053	446.75381	752.41718	893.01953	490.54422	715.70837	805.56854	490.25220	777.26251	829.48914	458.47787	819.73480	754.40045	484.36856	667.87750	1194.22876	16.70593	677.67041	1127.75159	-12.87814	731.66730	1070.67664	62.34669	748.64001	1209.48413	3.94565	765.72333	1272.62646	42.68621	833.77301	1250.21375	33.97714	787.76788	1350.15491	12.58778
14675	58.69600	619.43579	1417.80994	265.65997	685.20215	1362.03577	418.95270	649.49451	1368.59302	101.21745	755.26184	1286.44788	248.25859	693.82068	1154.58826	489.96515	692.18427	1065.56860	510.99396	638.57428	1029.92480	446.73810	752.34998	893.01788	490.56763	715.62970	805.57007	490.26013	777.19781	829.48804	458.52020	819.65765	754.38776	484.40546	667.87146	1194.24854	16.67406	677.67621	1127.77673	-12.90980	731.66217	1070.69897	62.32556	748.64624	1209.52197	3.95000	765.71869	1272.65747	42.69968	833.76514	1250.25159	34.00935	787.74982	1350.18921	12.60871
14676	58.70000	619.41327	1417.82166	265.64978	685.18646	1362.04065	418.95432	649.47131	1368.60852	101.21696	755.24860	1286.45398	248.25967	693.76862	1154.57056	489.94971	692.12164	1065.54675	510.97800	638.51550	1029.90845	446.71786	752.28461	893.01599	490.58707	715.54688	805.55664	490.25958	777.13678	829.48724	458.55673	819.58289	754.38062	484.44324	667.85028	1194.25647	16.63111	677.67529	1127.77380	-12.94709	731.64734	1070.70471	62.29302	748.65033	1209.55957	3.96034	765.70990	1272.68604	42.71134	833.75531	1250.29346	34.03015	787.72858	1350.22400	12.63681
14677	58.70400	619.38873	1417.82300	265.64777	685.16089	1362.04089	418.95587	649.44537	1368.61060	101.22039	755.23309	1286.46179	248.26118	693.71167	1154.54651	489.93765	692.05652	1065.52063	510.96387	638.44128	1029.88184	446.70862	752.21777	893.01135	490.60953	715.45746	805.53180	490.26044	777.07056	829.47882	458.58984	819.49622	754.36908	484.49103	667.82526	1194.25012	16.60029	677.65759	1127.76306	-12.97434	731.60901	1070.68762	62.25578	748.64734	1209.58228	3.97283	765.69104	1272.71838	42.72564	833.74200	1250.33667	34.04328	787.70563	1350.24988	12.66366
14678	58.70800	619.36316	1417.81470	265.65076	685.12476	1362.03113	418.95465	649.40839	1368.61023	101.22471	755.21313	1286.47339	248.26608	693.64618	1154.53772	489.94107	691.99091	1065.50891	510.96487	638.37610	1029.85608	446.71042	752.14270	893.00299	490.63779	715.36957	805.50519	490.27502	776.99518	829.47357	458.61743	819.40771	754.35547	484.53879	667.80243	1194.24316	16.59086	677.63721	1127.75806	-12.98887	731.57776	1070.67847	62.23017	748.63818	1209.58679	3.99688	765.66925	1272.73901	42.73590	833.72900	1250.37305	34.05183	787.67468	1350.26208	12.69716
14679	58.71200	619.33301	1417.80396	265.64575	685.08722	1362.02148	418.95239	649.36462	1368.61157	101.22776	755.18750	1286.47876	248.26831	693.59216	1154.53979	489.95731	691.93182	1065.51160	510.98425	638.32147	1029.84668	446.72000	752.06549	892.99414	490.65659	715.28717	805.49536	490.31412	776.91687	829.47083	458.64273	819.32037	754.33887	484.58243	667.79279	1194.24646	16.60004	677.63397	1127.76440	-12.98429	731.58710	1070.69446	62.23449	748.62433	1209.58899	4.02621	765.64246	1272.75916	42.74971	833.71460	1250.40173	34.06612	787.64624	1350.27271	12.74051
14680	58.71600	619.30304	1417.79028	265.65256	685.05347	1362.00500	418.95300	649.32886	1368.61389	101.22864	755.16364	1286.47754	248.26950	693.55634	1154.54724	489.98834	691.89447	1065.52429	511.02377	638.27924	1029.86060	446.74237	751.99164	892.98309	490.68106	715.21173	805.49359	490.37589	776.83893	829.45630	458.67044	819.24194	754.31726	484.62729	667.80865	1194.26233	16.62962	677.64905	1127.78479	-12.96497	731.61853	1070.72668	62.26387	748.61151	1209.59229	4.05894	765.61542	1272.77917	42.76650	833.69696	1250.42871	34.08320	787.61755	1350.28528	12.78087
